<svg 
    version="1.0" 
    xmlns="http://www.w3.org/2000/svg"
    width="128.000000pt" 
    height="128.000000pt" 
    viewBox="0 0 128.000000 128.000000"
    preserveAspectRatio="xMidYMid meet"
>
    <g 
        transform="translate(0.000000,128.000000) scale(0.100000,-0.100000)"
        fill="currentColor" 
        stroke="none"
    >
        <path 
            d="
                M78 1089 c-23 -12 -46 -35 -58 -59 -19 -37 -20 -58 -20 -390 0 -398
                1 -404 78 -448 l40 -22 521 0 c493 0 524 1 559 19 22 11 46 35 60 59 22 39 22
                46 22 391 0 333 -1 354 -20 391 -13 26 -34 47 -60 60 -38 19 -57 20 -562 20
                -501 -1 -525 -2 -560 -21z m1032 -83 c0 -8 -459 -346 -469 -346 -10 0 -428
                306 -461 336 -12 12 56 14 458 14 260 0 472 -2 472 -4z m-457 -469 c105 81
                516 383 521 383 3 0 6 -139 6 -309 0 -268 -2 -312 -16 -325 -14 -14 -75 -16
                -524 -16 -449 0 -510 2 -524 16 -14 13 -16 57 -16 329 l0 314 270 -200 c191
                -142 274 -198 283 -192z
            "
        />
    </g>
</svg>
