<svg    
    version="1.0" 
    xmlns="http://www.w3.org/2000/svg"
    width="128.000000pt" 
    height="128.000000pt" 
    viewBox="0 0 128.000000 128.000000"
    preserveAspectRatio="xMidYMid meet"
>
    <g 
        transform="translate(0.000000,128.000000) scale(0.100000,-0.100000)"
        fill="currentColor" 
        stroke="none"
    >
        <path 
            d="
                M162 1188 c-27 -27 -11 -55 82 -147 l95 -94 -82 -56 c-88 -61 -241
                -208 -250 -241 -14 -52 202 -254 353 -330 177 -89 353 -94 533 -13 l58 26 92
                -91 c56 -56 100 -92 113 -92 24 0 44 18 44 40 0 20 -990 1010 -1011 1010 -8 0
                -20 -5 -27 -12z m294 -359 l52 -52 -26 -40 c-37 -56 -38 -147 -3 -199 63 -91
                175 -114 264 -54 l35 24 51 -52 c28 -28 51 -54 51 -58 0 -12 -101 -48 -169
                -60 -169 -29 -347 46 -537 225 l-78 74 73 72 c64 61 210 171 229 171 4 0 30
                -23 58 -51z m189 -190 c67 -67 69 -71 51 -85 -59 -43 -156 7 -156 80 0 33 17
                76 30 76 3 0 37 -32 75 -71z
            "
        />
        <path 
            d="
                M553 1024 c-29 -7 -45 -28 -41 -56 3 -22 7 -23 100 -25 189 -3 336
                -73 507 -243 l64 -63 -81 -78 c-45 -43 -82 -85 -82 -92 0 -8 9 -22 20 -32 18
                -16 20 -16 52 3 34 21 129 116 165 165 13 16 19 36 16 48 -8 28 -145 166 -223
                223 -73 54 -158 99 -240 128 -54 19 -211 32 -257 22z
            "
        />
    </g>
</svg>
