<svg 
    version="1.0" 
    xmlns="http://www.w3.org/2000/svg"
    width="128.000000pt" 
    height="128.000000pt" 
    viewBox="0 0 128.000000 128.000000"
    preserveAspectRatio="xMidYMid meet"
>
    <g 
        transform="translate(0.000000,128.000000) scale(0.100000,-0.100000)"
        fill="currentColor" 
        stroke="none"
    >
        <path 
            d="
                M543 1262 c-251 -90 -272 -432 -35 -549 47 -23 70 -28 132 -28 174 0
                295 121 295 295 0 85 -21 142 -74 203 -72 81 -213 117 -318 79z m207 -116 c59
                -39 85 -89 85 -166 0 -78 -26 -127 -88 -168 -56 -37 -153 -39 -210 -3 -76 47
                -111 140 -88 229 14 51 75 117 123 131 53 16 135 6 178 -23z
            "
        />
        <path 
            d="
                M535 590 c-197 -43 -354 -182 -415 -366 -26 -77 -21 -119 17 -165 50
                -59 53 -59 508 -59 454 0 447 -1 498 59 37 45 42 91 17 166 -53 160 -182 288
                -346 346 -67 23 -215 33 -279 19z m204 -101 c146 -33 272 -146 326 -291 16
                -44 16 -49 1 -73 l-16 -25 -410 0 -410 0 -16 25 c-15 24 -15 29 1 73 53 143
                180 258 322 291 52 12 149 13 202 0z
            "
        />
    </g>
</svg>
