<svg 
    version="1.0" 
    xmlns="http://www.w3.org/2000/svg"
    width="128.000000pt" 
    height="128.000000pt" 
    viewBox="0 0 128.000000 128.000000"
    preserveAspectRatio="xMidYMid meet"
>
    <g 
        transform="translate(0.000000,128.000000) scale(0.100000,-0.100000)"
        fill="currentColor" 
        stroke="none"
    >
        <path 
            d="
                M492 1255 c-168 -40 -330 -168 -410 -321 -58 -113 -75 -193 -69 -324
                5 -126 35 -219 104 -322 170 -258 519 -352 799 -216 80 39 99 68 66 100 l-21
                22 -78 -36 c-98 -45 -153 -58 -245 -58 -147 0 -274 54 -378 159 -215 217 -216
                547 -1 762 106 106 233 159 381 159 148 0 272 -52 381 -160 113 -111 164 -244
                157 -405 -5 -105 -26 -158 -71 -182 -66 -34 -139 -14 -177 50 -18 29 -20 52
                -20 237 0 113 -4 210 -8 216 -23 34 -82 12 -82 -32 l0 -24 -41 29 c-185 134
                -423 -38 -407 -293 11 -167 125 -289 268 -289 67 0 115 19 169 68 l41 37 26
                -31 c78 -93 215 -102 308 -20 60 53 78 102 84 229 5 127 -10 198 -69 319 -77
                156 -235 282 -410 325 -77 19 -221 20 -297 1z m190 -395 c45 -13 110 -83 126
                -138 27 -90 9 -180 -50 -247 -72 -82 -164 -82 -236 0 -59 67 -77 157 -50 247
                15 51 81 125 121 137 43 12 46 12 89 1z
            "
        />
    </g>
</svg>
