<svg 
    version="1.0" 
    xmlns="http://www.w3.org/2000/svg"
    width="128.000000pt" 
    height="128.000000pt" 
    viewBox="0 0 128.000000 128.000000"
    preserveAspectRatio="xMidYMid meet"
>
    <g 
        transform="translate(0.000000,128.000000) scale(0.100000,-0.100000)"
        fill="currentColor" 
        stroke="none"
    >
        <path 
            d="
                M502 1239 c-108 -53 -161 -140 -169 -273 l-6 -84 -36 -11 c-66 -20
                -101 -49 -126 -104 -23 -50 -24 -60 -25 -322 -1 -184 2 -280 10 -300 19 -50
                57 -92 104 -115 43 -20 57 -21 386 -21 329 0 343 1 386 21 47 23 85 65 104
                115 8 20 11 116 10 300 -1 261 -2 272 -24 321 -24 53 -76 94 -137 109 -25 6
                -27 10 -31 88 -9 134 -63 223 -170 276 -52 27 -72 31 -138 31 -66 0 -86 -4
                -138 -31z m241 -91 c23 -13 55 -42 72 -66 26 -38 30 -54 34 -123 l3 -79 -212
                0 -212 0 3 78 c3 65 9 85 31 120 64 97 181 125 281 70z m221 -371 c21 -7 48
                -25 60 -40 20 -27 21 -40 21 -285 0 -209 -3 -263 -15 -287 -29 -58 -43 -60
                -395 -60 -289 0 -324 2 -348 17 -49 33 -52 48 -55 278 -2 118 -1 238 3 267 8
                64 36 101 85 113 56 13 599 10 644 -3z
            "
        />
        <path 
            d="
                M585 565 c-28 -27 -33 -71 -10 -101 9 -12 14 -43 15 -87 0 -84 11
                -107 50 -107 39 0 50 23 50 107 1 44 6 75 15 87 37 49 -3 126 -65 126 -19 0
                -40 -9 -55 -25z
            "
        />
    </g>
</svg>
