<svg 
    version="1.0" 
    xmlns="http://www.w3.org/2000/svg"
    width="128.000000pt" 
    height="128.000000pt" 
    viewBox="0 0 128.000000 128.000000"
    preserveAspectRatio="xMidYMid meet"
>
    <g 
        transform="translate(0.000000,128.000000) scale(0.100000,-0.100000)"
        fill="currentColor" 
        stroke="none"
    >
        <path 
            d="
                M501 1265 c-110 -24 -226 -89 -311 -175 -250 -250 -252 -649 -5 -895
                122 -121 256 -183 419 -192 292 -16 560 170 649 452 31 99 31 271 0 370 -101
                318 -428 510 -752 440z m274 -67 c197 -41 377 -222 426 -428 72 -302 -126
                -619 -431 -691 -188 -45 -395 16 -535 156 -112 112 -168 246 -168 405 0 98 16
                167 59 256 116 239 375 359 649 302z
            "
        />
        <path 
            d="
                M581 998 c-92 -16 -168 -83 -178 -157 -4 -30 -1 -43 16 -60 38 -38
                86 -19 121 49 24 47 45 60 100 60 52 0 90 -34 90 -81 0 -28 -13 -45 -85 -114
                -77 -73 -85 -85 -85 -118 0 -43 28 -77 63 -77 31 0 41 9 65 56 11 22 39 53 61
                68 130 90 166 200 96 292 -49 64 -162 100 -264 82z
            "
        />
        <path 
            d="
                M595 431 c-36 -15 -50 -42 -46 -93 3 -46 73 -74 121 -48 39 21 45 97
                8 127 -20 17 -60 23 -83 14z
            "
        />
    </g>
</svg>
