<svg   
    version="1.0" 
    xmlns="http://www.w3.org/2000/svg"
    width="128.000000pt" 
    height="128.000000pt" 
    viewBox="0 0 128.000000 128.000000"
    preserveAspectRatio="xMidYMid meet"
>
    <g 
        transform="translate(0.000000,128.000000) scale(0.100000,-0.100000)"
        fill="currentColor" 
        stroke="none"
    >
        <path 
            d="
                M585 1024 c-11 -2 -45 -9 -75 -15 -137 -28 -293 -123 -423 -258 -52
                -54 -87 -99 -87 -111 0 -32 172 -203 268 -267 49 -33 119 -68 170 -86 74 -26
                102 -30 187 -30 154 -1 284 44 430 148 79 56 225 209 225 235 0 32 -172 204
                -268 267 -104 70 -218 110 -327 117 -44 3 -89 3 -100 0z m151 -95 c110 -20
                219 -78 331 -176 75 -65 105 -105 97 -128 -14 -35 -180 -166 -269 -210 -176
                -89 -326 -95 -485 -19 -116 55 -300 206 -300 246 0 17 122 131 187 174 76 50
                171 93 244 109 80 17 120 18 195 4z
            "
        />
        <path 
            d="
                M567 854 c-106 -33 -172 -150 -148 -260 30 -132 155 -207 284 -170
                72 21 131 79 152 149 19 63 19 71 0 134 -20 68 -80 128 -148 148 -61 18 -78
                18 -140 -1z m152 -101 c85 -63 75 -186 -20 -236 -92 -49 -208 33 -195 137 12
                104 133 159 215 99z
            "
        />
    </g>
</svg>
