<svg    
    version="1.0" 
    xmlns="http://www.w3.org/2000/svg"
    width="500.000000pt" 
    height="500.000000pt"   
    viewBox="0 0 500.000000 500.000000"
    preserveAspectRatio="xMidYMid meet"
>
    <g 
        transform="translate(0.000000,500.000000) scale(0.100000,-0.100000)"
        stroke="none"
    >
        <path
            fill='#0056e8' 
            d="
                M2271 4699 c-756 -85 -1408 -536 -1745 -1207 -25 -50 -46 -94 -46
                -97 0 -3 38 -5 85 -5 l85 0 36 71 c218 433 654 812 1120 972 239 83 442 117
                694 117 251 0 446 -32 680 -112 478 -163 914 -538 1134 -977 l36 -71 85 0 c47
                0 85 3 85 6 0 3 -25 55 -57 116 -288 564 -807 974 -1433 1134 -204 52 -554 76
                -759 53z
            "
        />
        <path 
            fill='#002462'
            d="
                M4203 3283 c-60 -21 -137 -94 -170 -161 -27 -55 -28 -64 -31 -228
                l-4 -171 -23 23 -24 24 -1451 0 -1451 0 -23 -24 -24 -23 -4 161 c-3 142 -7
                166 -27 207 -34 71 -86 125 -149 156 -56 28 -60 28 -269 31 -271 4 -299 -2
                -388 -91 -99 -99 -95 -71 -95 -691 l0 -531 29 -60 c34 -72 99 -135 167 -161
                43 -17 77 -19 274 -19 258 0 281 6 362 87 78 78 91 118 98 313 4 94 7 165 8
                158 1 -7 12 -21 24 -33 22 -20 26 -20 1468 -20 1442 0 1446 0 1468 20 12 12
                23 26 24 33 1 7 4 -58 8 -143 7 -188 23 -233 106 -309 84 -77 119 -85 370 -85
                l211 0 66 32 c76 38 128 94 158 172 18 47 19 81 19 575 0 604 2 590 -90 683
                -82 83 -118 92 -378 91 -166 0 -227 -4 -259 -16z
            "
        />
        <path
            fill='#0056e8' 
            d="
                M2366 3059 c-43 -10 -106 -34 -140 -51 -61 -33 -196 -153 -196 -176
                0 -8 26 -12 88 -12 84 0 90 1 180 47 l94 48 108 0 108 0 94 -48 c90 -46 96
                -47 181 -47 61 0 87 4 87 12 0 23 -135 143 -196 175 -71 38 -208 73 -279 72
                -27 0 -85 -9 -129 -20z
            "
        />
        <path
            fill='#0056e8' 
            d="
                M2030 2168 c0 -23 135 -143 196 -175 167 -88 381 -88 548 0 61 32
                196 152 196 175 0 9 -27 12 -94 12 -89 0 -96 -2 -152 -35 -76 -46 -142 -65
                -224 -65 -82 0 -148 19 -224 65 -56 33 -63 35 -152 35 -67 0 -94 -3 -94 -12z
            "
        />
        <path
            fill='#0056e8' 
            d="
                M480 1604 c0 -3 25 -55 57 -116 215 -421 554 -755 983 -967 214 -106
                409 -168 655 -208 154 -25 496 -25 650 0 251 41 428 97 650 206 432 212 772
                545 988 969 32 61 57 113 57 116 0 3 -38 6 -84 6 l-84 0 -47 -87 c-309 -582
                -896 -980 -1565 -1063 -126 -15 -396 -12 -519 6 -356 52 -669 180 -948 387
                -238 178 -442 414 -580 673 l-45 84 -84 0 c-46 0 -84 -3 -84 -6z
            "
        />
    </g>
</svg>
