<svg 
    version="1.0" 
    xmlns="http://www.w3.org/2000/svg"
    width="666.000000pt" 
    height="375.000000pt" 
    viewBox="0 0 666.000000 375.000000"
    preserveAspectRatio="xMidYMid meet"
>
    <g 
        transform="translate(0.000000,375.000000) scale(0.100000,-0.100000)"
        stroke="none"
    >
        <path 
            fill='#0056e8'
            d="
                M1370 3175 c-106 -17 -135 -25 -235 -60 -303 -107 -571 -339 -722
                -627 -23 -42 -37 -78 -32 -80 5 -2 35 -1 65 2 53 5 57 7 78 45 33 62 99 154
                155 218 172 196 406 328 686 388 77 17 341 17 420 0 260 -55 475 -168 645
                -340 78 -80 181 -218 211 -283 12 -27 18 -30 59 -30 11 0 34 0 50 1 l30 1 -21
                43 c-41 81 -93 163 -155 243 -177 229 -466 407 -760 469 -108 23 -363 28 -474
                10z
            "
        />
        <path 
            fill='#002462'
            d="
                M2636 2343 c-35 -9 -94 -54 -119 -91 -33 -48 -47 -102 -47 -182 0
                -45 -3 -60 -10 -50 -8 13 -116 15 -877 15 -477 0 -876 -4 -885 -9 -16 -7 -18
                -1 -18 60 0 83 -23 140 -76 189 -56 53 -106 68 -216 63 -85 -3 -100 -6 -144
                -33 -33 -21 -60 -49 -82 -85 l-33 -55 3 -296 3 -296 30 -49 c19 -30 49 -60 79
                -79 44 -27 59 -30 145 -33 79 -3 104 0 142 16 100 43 148 122 149 242 0 57 3
                71 12 62 18 -18 1765 -17 1771 1 2 6 6 -23 10 -67 7 -94 38 -153 106 -201 40
                -28 49 -30 149 -33 129 -5 167 6 222 59 69 67 70 72 70 399 0 320 -1 328 -66
                394 -51 51 -98 66 -204 65 -52 -1 -104 -4 -114 -6z
            "
        />
        <path 
            fill='#0056e8'
            d="
                M1513 2210 c-69 -14 -126 -44 -174 -91 l-44 -44 70 -3 c47 -2 88 3
                125 14 66 22 110 22 170 0 27 -9 78 -16 125 -16 l79 0 -39 41 c-76 77 -210
                119 -312 99z
            "
        />
        <path
            fill="currentColor"  
            d="
                M5201 2195 c-103 -24 -173 -72 -213 -148 -30 -56 -33 -204 -5 -254
                26 -49 78 -97 132 -122 107 -50 344 -52 444 -3 25 12 46 22 48 22 2 0 8 -11
                13 -25 8 -21 16 -25 54 -25 37 0 45 3 49 23 4 18 3 190 -2 245 -1 9 -39 12
                -156 12 l-155 0 0 -49 0 -50 43 -3 42 -4 -37 -17 c-45 -21 -145 -22 -191 -3
                -47 19 -71 61 -71 123 -1 60 21 98 75 126 46 25 134 19 176 -11 28 -20 43 -22
                152 -22 76 0 121 4 121 10 0 21 -48 86 -82 112 -87 66 -292 96 -437 63z
            "
        />
        <path
            fill="currentColor"  
            d="
                M3263 2193 l-43 -4 0 -275 0 -274 115 0 115 0 0 115 0 115 170 0 170
                0 0 50 0 50 -170 0 -170 0 0 45 0 45 200 0 200 0 0 70 0 70 -272 -2 c-150 -1
                -292 -3 -315 -5z
            "
        />
        <path
            fill="currentColor"  
            d="
                M3956 2193 c-3 -4 -6 -129 -6 -280 l0 -273 115 0 115 0 0 278 0 279
                -109 1 c-60 0 -112 -2 -115 -5z
            "
        />
        <path
            fill="currentColor"  
            d="
                M4270 2128 l0 -68 105 0 105 0 0 -210 0 -211 116 3 115 3 2 205 2
                205 110 5 110 5 0 65 0 65 -332 0 -333 0 0 -67z
            "
        />
        <path
            fill="currentColor"  
            d="
                M5835 2187 c-3 -7 -4 -131 -3 -277 l3 -265 333 -3 332 -2 0 70 0 70
                -215 0 -215 0 0 45 0 45 170 0 170 0 0 50 0 50 -170 0 -170 0 0 45 0 45 200 0
                200 0 0 70 0 70 -315 0 c-245 0 -317 -3 -320 -13z
            "
        />
        <path 
            fill='#0056e8'
            d="
                M1306 1666 c10 -26 93 -88 147 -108 36 -14 76 -20 129 -20 64 0 86 5
                140 31 35 16 81 48 103 71 l40 41 -90 -4 c-49 -2 -115 -11 -145 -19 -48 -13
                -62 -13 -110 0 -30 8 -92 17 -137 19 -71 4 -82 2 -77 -11z
            "
        />
        <path 
            fill='#0056e8'
            d="
                M383 1337 c-7 -11 63 -142 116 -217 213 -300 539 -500 894 -549 189
                -26 412 -6 590 53 342 113 612 348 776 674 l21 42 -63 0 -64 0 -24 -47 c-97
                -191 -320 -401 -529 -501 -182 -85 -326 -117 -530 -116 -320 2 -591 111 -818
                328 -73 70 -211 241 -213 263 0 4 -10 23 -22 42 -21 31 -27 34 -76 35 -29 0
                -55 -3 -58 -7z
            "
        />
    </g>
</svg>
