<svg    
    version="1.0" 
    xmlns="http://www.w3.org/2000/svg"
    width="1105.000000pt"   
    height="226.000000pt" 
    viewBox="0 0 1105.000000 226.000000"
    preserveAspectRatio="xMidYMid meet"
>
    <g 
        transform="translate(0.000000,226.000000) scale(0.100000,-0.100000)"
        fill="currentColor"  
        stroke="none"
    >
        <path 
            d="
                M6915 2054 c-273 -28 -491 -97 -657 -207 -88 -59 -208 -192 -256
                -284 -65 -125 -93 -235 -99 -389 -12 -292 60 -504 232 -679 148 -151 357 -246
                645 -294 36 -6 137 -15 225 -22 379 -26 711 32 953 167 35 20 65 34 67 32 2
                -2 17 -39 33 -83 l30 -80 158 0 159 0 0 450 0 450 -515 0 -515 0 -3 -157 -3
                -158 146 0 c80 0 145 -4 145 -9 0 -11 -83 -64 -135 -86 -57 -23 -214 -45 -327
                -45 -292 0 -462 111 -523 341 -52 193 40 423 203 512 145 79 400 85 557 13 30
                -14 79 -48 108 -75 l54 -51 403 0 402 0 -6 28 c-12 54 -97 208 -146 265 -148
                173 -369 287 -656 338 -98 18 -165 22 -379 24 -143 2 -278 1 -300 -1z
            "
        />
        <path 
            d="
                M205 2018 c-3 -7 -4 -416 -3 -908 l3 -895 380 0 380 0 3 362 2 363
                558 2 557 3 0 170 0 170 -557 3 -558 2 0 145 0 145 660 0 660 0 0 225 0 225
                -1040 0 c-823 0 -1042 -3 -1045 -12z
            "
        />
        <path 
            d="
                M2600 1120 l0 -910 378 2 377 3 0 905 0 905 -377 3 -378 2 0 -910z
            "
        />
        <path 
            d="
                M3640 1805 l0 -225 353 -2 352 -3 3 -683 2 -682 380 0 380 0 0 685 0
                685 355 0 355 0 0 225 0 225 -1090 0 -1090 0 0 -225z
            "
        />
        <path 
            d="
                M8760 1120 l0 -910 1093 2 1092 3 3 223 2 222 -715 0 -715 0 0 140 0
                140 560 0 560 0 0 175 0 175 -557 2 -558 3 0 140 0 140 663 3 662 2 0 225 0
                225 -1045 0 -1045 0 0 -910z
            "
        />
    </g>
</svg>
